<?xml version="1.0" standalone="no"?>
<!DOCTYPE svg PUBLIC "-//W3C//DTD SVG 20010904//EN"
 "http://www.w3.org/TR/2001/REC-SVG-20010904/DTD/svg10.dtd">
<svg version="1.0" xmlns="http://www.w3.org/2000/svg"
 width="225.000000pt" height="225.000000pt" viewBox="0 0 225.000000 225.000000"
 preserveAspectRatio="xMidYMid meet">

<g transform="translate(0.000000,225.000000) scale(0.100000,-0.100000)"
fill="#000000" stroke="none">
<path d="M1675 1840 c-41 -9 -70 -26 -116 -67 -41 -37 -53 -62 -19 -41 11 7
20 19 20 27 0 8 3 11 7 8 3 -4 12 1 20 11 8 9 12 12 9 5 -4 -7 1 -9 13 -6 10
3 22 -1 27 -8 11 -18 14 -59 5 -59 -17 0 -31 28 -25 46 5 15 0 12 -23 -9 -16
-15 -32 -25 -36 -21 -3 3 -12 2 -19 -2 -7 -5 -17 -9 -23 -9 -5 0 -11 -9 -13
-20 -3 -17 -1 -17 8 -5 9 13 12 13 24 -2 16 -21 26 -23 26 -5 0 8 8 21 18 30
15 13 19 14 36 1 11 -8 15 -14 10 -14 -6 0 -15 5 -22 12 -12 12 -17 2 -13 -28
2 -14 -44 -38 -58 -30 -17 11 -13 -10 5 -25 13 -10 17 -10 24 1 5 8 12 11 16
7 4 -3 1 -13 -5 -21 -8 -9 -8 -16 -2 -20 7 -5 7 -15 1 -32 -13 -34 -13 -44 3
-44 7 0 21 -16 31 -35 21 -39 36 -41 51 -7 5 12 15 20 22 18 7 -3 15 -1 19 5
4 6 11 6 21 -2 12 -10 16 -10 23 1 13 22 23 5 11 -19 -7 -12 -8 -22 -1 -26 5
-3 7 -20 3 -38 -4 -22 -2 -29 5 -22 11 10 19 48 22 100 1 29 2 29 21 -15 11
-25 28 -51 37 -59 12 -10 14 -15 5 -18 -15 -6 -17 -33 -3 -33 10 0 18 26 22
75 3 24 -1 31 -19 33 -17 3 -23 10 -23 28 0 18 -5 24 -22 24 -17 0 -19 3 -10
12 8 8 15 8 27 -2 8 -7 19 -10 22 -6 4 4 3 10 -3 14 -6 4 -13 15 -17 25 -9 23
-28 22 -34 -2 -3 -11 -11 -22 -19 -25 -24 -9 -26 13 -4 41 11 14 17 29 12 32
-16 11 -9 66 11 86 19 20 19 20 13 -2 -5 -15 -3 -23 5 -23 7 0 10 3 6 6 -3 4
2 14 11 23 10 9 12 12 5 7 -17 -11 -17 8 0 22 10 9 17 4 31 -18 9 -17 14 -35
10 -42 -5 -8 -10 -6 -15 8 -6 17 -8 16 -20 -9 -9 -21 -10 -30 -1 -39 8 -8 8
-15 1 -24 -6 -8 -6 -14 0 -18 15 -10 24 33 11 49 -10 13 -8 15 14 15 14 0 26
5 26 10 0 6 8 5 20 -2 11 -7 20 -22 19 -33 0 -11 -3 -14 -6 -7 -2 6 -15 12
-27 12 -18 0 -25 -9 -35 -41 -11 -35 -10 -43 3 -58 9 -10 16 -22 16 -28 0 -6
7 -16 15 -23 16 -13 21 -55 6 -46 -5 4 -12 -12 -16 -34 -4 -22 -11 -40 -16
-40 -5 0 -9 -7 -9 -15 0 -8 5 -15 10 -15 6 0 10 6 10 14 0 8 6 21 13 28 8 7
17 26 21 41 9 38 23 34 30 -10 4 -21 9 -46 12 -55 4 -13 1 -16 -11 -12 -9 4
-14 13 -11 20 3 8 1 24 -4 36 -7 20 -9 17 -9 -16 -1 -23 6 -47 16 -58 9 -10
13 -21 9 -25 -4 -4 -11 -2 -15 6 -6 9 -10 8 -13 -7 -7 -27 2 -72 14 -72 6 0 8
13 5 30 -4 17 -3 30 2 30 14 0 19 -72 8 -98 -8 -17 -13 -19 -19 -10 -9 15 -12
-12 -8 -83 2 -44 -10 -66 -28 -55 -5 3 -5 27 0 53 17 92 18 113 4 113 -8 0
-11 -10 -8 -28 2 -18 -2 -35 -13 -46 -12 -12 -15 -26 -11 -49 6 -32 5 -33 -29
-33 -24 0 -31 3 -20 8 25 15 38 47 25 63 -14 17 -4 74 15 90 14 11 29 105 17
105 -9 0 -42 -102 -42 -130 0 -21 -8 -24 -34 -14 -21 8 -20 22 4 42 20 18 32
78 15 75 -5 -1 -10 14 -11 33 0 22 4 34 13 34 8 0 13 -13 13 -36 0 -21 4 -33
10 -29 15 9 12 51 -5 65 -10 9 -14 22 -10 39 3 14 1 33 -5 41 -8 12 -10 11
-10 -8 0 -13 -4 -21 -9 -17 -5 3 -15 -12 -22 -32 -15 -47 -36 -69 -78 -78 -31
-7 -32 -7 -16 -31 16 -24 12 -50 -6 -39 -5 4 -10 -2 -10 -12 -4 -67 -3 -93 5
-93 5 0 3 -6 -3 -14 -7 -9 -9 -29 -5 -55 5 -33 3 -41 -8 -41 -12 0 -19 31 -32
143 -10 78 -20 154 -23 170 -5 25 -3 27 31 27 20 0 36 -5 36 -11 0 -6 -7 -9
-15 -5 -16 6 -45 -2 -45 -13 0 -3 14 -6 31 -6 41 0 63 30 37 49 -10 7 -18 17
-18 22 0 16 36 33 51 23 11 -7 10 -11 -6 -23 -20 -15 -20 -15 0 -16 11 -1 15
-4 8 -6 -16 -7 -5 -34 14 -34 11 0 13 7 9 25 -4 14 -2 25 4 25 5 0 10 9 10 20
0 11 -4 20 -10 20 -5 0 -10 5 -10 11 0 8 5 8 15 -1 20 -16 19 -5 -1 26 -13 18
-22 23 -38 18 -25 -8 -36 -23 -29 -40 3 -9 -4 -12 -26 -9 -22 3 -31 -1 -34
-13 -3 -12 -5 -11 -6 6 0 12 -6 22 -12 22 -6 0 -9 6 -6 14 3 8 0 17 -7 19 -9
4 -11 -2 -8 -19 2 -13 8 -24 13 -24 5 0 9 -9 9 -20 0 -44 -17 -15 -39 68 -13
48 -26 93 -28 101 -3 8 -1 11 5 7 6 -3 13 -2 17 4 3 5 0 10 -8 10 -9 0 -28 33
-48 80 -36 88 -53 110 -71 92 -12 -12 -49 -97 -86 -197 -14 -38 -27 -72 -29
-74 -2 -3 -18 9 -36 26 -47 46 -134 86 -195 91 -61 5 -164 -19 -201 -47 -37
-28 -13 -55 62 -69 110 -21 163 -62 170 -137 3 -22 8 -48 12 -57 9 -23 53 -50
67 -42 7 4 8 3 4 -5 -4 -6 2 -22 12 -36 21 -27 22 -19 -13 -166 -17 -76 -20
-140 -4 -156 16 -16 -51 -43 -108 -43 -26 0 -76 7 -111 15 -61 14 -64 14 -113
-9 -41 -20 -55 -23 -79 -14 -35 12 -37 28 -15 132 21 99 59 135 185 178 49 17
51 18 15 13 -91 -13 -143 -35 -195 -82 -45 -40 -52 -44 -45 -23 26 84 91 171
155 209 19 12 31 21 27 21 -17 0 -70 -33 -109 -68 -38 -35 -41 -35 -34 -12 l6
25 -11 -25 c-7 -14 -21 -45 -32 -69 l-20 -43 -29 78 c-27 75 -28 81 -13 122 8
24 28 66 45 94 17 27 26 47 21 44 -15 -9 -68 -107 -76 -138 -7 -26 -25 -40
-25 -19 0 16 -71 133 -77 127 -3 -3 4 -20 15 -38 25 -41 71 -154 77 -188 2
-14 8 -43 13 -66 l9 -41 -44 25 c-48 27 -134 52 -173 51 -15 0 -5 -6 25 -13
28 -7 61 -19 75 -27 24 -13 23 -14 -35 -19 l-60 -4 70 -6 c69 -5 70 -5 88 -43
11 -22 21 -70 24 -116 l6 -79 -41 -7 c-24 -4 -49 -2 -61 4 -32 18 -79 14 -83
-6 -7 -38 5 -82 31 -114 23 -28 35 -33 84 -37 31 -2 57 -9 57 -13 0 -5 -13
-39 -29 -74 l-30 -65 120 0 119 0 -24 38 c-14 20 -29 56 -34 80 -9 38 -8 42 9
42 10 0 19 4 19 8 0 5 35 4 77 0 43 -5 84 -6 91 -3 11 4 13 -11 10 -73 -2 -42
-8 -85 -12 -94 -7 -16 -2 -18 55 -18 l64 0 -3 87 -4 88 129 3 c70 2 145 4 167
5 l38 2 -1 -102 -2 -103 35 0 36 0 0 109 c0 108 0 109 25 115 16 4 32 20 42
41 19 39 16 38 61 26 17 -5 32 -6 32 -1 0 10 -48 24 -75 21 -17 -2 -17 0 -5 8
13 10 13 11 0 12 -19 1 48 27 73 28 9 1 17 -4 17 -9 0 -6 -8 -10 -17 -8 -10 2
-19 -5 -21 -16 -3 -16 0 -18 22 -12 22 5 26 3 26 -14 0 -11 5 -20 11 -20 16 0
3 -142 -21 -225 l-19 -65 35 -1 c116 -4 117 -4 110 34 -4 17 -11 77 -17 131
-10 92 -10 101 7 113 13 10 14 13 3 13 -12 0 -12 2 1 10 9 6 10 10 3 10 -8 0
-12 22 -12 70 0 86 -7 110 -32 110 -10 0 -19 5 -19 11 0 5 5 7 10 4 6 -3 10 2
10 12 1 17 1 17 14 0 18 -24 31 -5 16 23 -8 16 -8 25 0 35 6 8 9 23 5 34 -3
11 -1 23 6 27 9 5 10 -7 5 -52 -4 -38 -3 -54 3 -45 8 12 11 9 16 -12 4 -15 12
-24 17 -21 6 4 6 10 -1 17 -6 6 -11 16 -11 21 0 6 5 5 11 -1 8 -8 20 -8 35 -3
l23 9 -17 -33 c-9 -19 -20 -32 -24 -30 -4 3 -12 -14 -18 -36 -13 -49 -25 -53
-16 -5 8 39 -2 85 -13 66 -13 -20 -7 -126 7 -124 6 2 12 -4 12 -13 0 -8 -4
-13 -9 -9 -12 7 -25 -31 -16 -45 10 -15 23 -12 28 7 4 14 5 12 6 -4 0 -13 -3
-23 -9 -23 -5 0 -10 -4 -10 -9 0 -4 11 -6 25 -3 14 2 25 9 25 14 0 5 5 6 11 3
15 -10 115 44 148 80 39 43 72 108 87 171 11 51 11 52 -13 63 -23 11 -24 10
-20 -16 2 -16 2 -22 0 -15 -5 13 -23 17 -23 4 0 -4 6 -14 13 -21 10 -11 8 -12
-10 -6 -14 4 -24 2 -24 -4 -1 -6 -2 -15 -3 -21 0 -5 -5 -10 -11 -9 -5 1 -9 6
-7 11 2 6 -4 8 -13 5 -9 -4 -15 -1 -15 8 0 8 9 15 20 15 13 0 20 7 20 20 0 13
-7 20 -19 20 -18 0 -31 18 -31 43 0 7 4 6 10 -3 8 -13 10 -12 10 3 0 9 3 17 8
17 13 0 39 -35 34 -48 -5 -16 6 -15 23 2 15 14 9 56 -7 56 -6 0 -7 -7 -4 -16
3 -9 2 -12 -5 -9 -5 4 -7 15 -4 26 4 11 2 19 -4 19 -6 0 -11 -4 -11 -10 0 -5
-4 -10 -9 -10 -5 0 -1 16 7 35 14 30 18 33 24 18 5 -13 7 -8 7 15 1 22 -3 31
-10 26 -7 -4 -10 -2 -8 5 3 7 8 12 13 11 5 -1 13 4 17 12 7 10 9 10 9 -2 0
-13 2 -13 11 0 9 13 10 12 5 -3 -3 -9 -1 -28 5 -40 7 -15 7 -35 1 -58 l-9 -34
0 46 c0 25 -5 54 -11 65 -11 17 -11 17 -12 -8 0 -15 5 -30 10 -33 6 -4 8 -15
5 -26 -11 -34 4 -79 26 -79 18 0 20 5 14 48 -15 117 -28 172 -41 172 -20 0
-27 -20 -7 -21 10 -1 2 -5 -17 -9 -41 -10 -48 -6 -29 16 11 14 11 18 -3 28
-12 9 -15 24 -12 66 3 40 2 49 -5 35 l-10 -20 0 20 c0 11 4 29 9 40 9 19 9 19
16 -3 5 -17 10 -20 19 -12 17 14 28 -26 14 -51 -5 -10 -9 -31 -9 -46 0 -22 5
-29 20 -30 16 -1 20 4 19 30 0 28 -2 29 -10 12 -7 -15 -8 -12 -4 15 8 58 -16
121 -98 255 -7 11 -29 41 -51 68 -30 38 -43 46 -60 42 -15 -5 -17 -4 -7 3 30
21 -71 63 -124 52z m4 -27 c-7 -10 -14 -20 -16 -22 -1 -2 -9 4 -18 12 -13 14
-13 16 3 20 39 10 45 8 31 -10z m43 -2 c-10 -6 -5 -10 17 -14 28 -6 30 -9 19
-26 -7 -11 -22 -25 -35 -32 -13 -7 -23 -21 -23 -33 1 -20 1 -20 15 -2 7 10 18
15 23 12 6 -3 12 -3 15 1 2 5 1 1 -1 -7 -3 -8 -7 -37 -10 -63 -3 -38 -7 -47
-21 -45 -11 2 -18 17 -22 48 -3 25 -7 50 -10 55 -5 14 20 57 30 50 5 -2 11 4
14 14 4 15 -1 18 -22 17 -14 -1 -32 -5 -39 -10 -7 -4 -15 -6 -18 -4 -2 3 7 11
21 18 14 7 25 17 25 22 0 4 8 8 18 8 13 0 14 -2 4 -9z m54 -6 c10 -8 14 -15 8
-15 -5 0 -19 7 -30 15 -10 8 -14 15 -8 15 5 0 19 -7 30 -15z m-76 -40 c0 -16
-27 -32 -37 -21 -7 7 16 36 28 36 5 0 9 -7 9 -15z m101 -1 c11 -14 10 -18 -6
-30 -16 -12 -20 -12 -27 0 -9 15 -1 46 12 46 4 0 14 -7 21 -16z m82 -54 c9
-11 13 -20 7 -20 -5 0 -14 9 -20 20 -6 11 -9 20 -8 20 2 0 11 -9 21 -20z
m-208 -36 c1 -21 -1 -22 -15 -9 -21 19 -40 19 -40 0 0 -9 6 -12 17 -8 13 5 15
2 10 -11 -4 -10 -7 -22 -7 -27 0 -4 -7 -6 -15 -3 -8 4 -23 0 -33 -7 -15 -13
-16 -12 -4 2 7 9 14 31 15 48 2 29 9 35 45 34 6 -1 12 4 12 10 0 22 15 -6 15
-29z m1 -49 c-3 -9 1 -18 9 -21 8 -4 15 -10 15 -16 0 -5 -4 -6 -10 -3 -5 3
-10 1 -10 -4 0 -6 4 -11 9 -11 13 0 21 -27 15 -45 -10 -26 -25 -16 -19 13 4
18 3 21 -3 9 -4 -10 -12 -18 -17 -16 -6 1 -15 -16 -22 -37 -8 -27 -12 -32 -12
-16 -1 12 -5 22 -11 22 -5 0 -10 9 -10 20 0 16 7 20 33 20 26 1 29 2 15 11
-24 14 -22 25 5 33 21 6 21 7 5 20 -22 17 -23 36 -2 36 10 0 14 -5 10 -15z
m224 -9 c0 -8 -5 -18 -10 -21 -6 -3 -7 -18 -3 -33 5 -24 4 -25 -9 -14 -14 12
-15 28 -2 70 5 17 24 15 24 -2z m-270 -26 c0 -10 -9 -24 -20 -30 -17 -9 -20
-8 -20 8 0 18 18 42 32 42 4 0 8 -9 8 -20z m310 0 c-8 -5 -11 -12 -8 -16 4 -4
3 -14 -2 -24 -6 -12 -5 -17 5 -17 16 0 28 24 19 38 -3 5 0 9 5 9 6 0 11 -6 12
-12 0 -7 2 -21 4 -30 2 -10 -2 -15 -10 -12 -8 3 -19 -5 -26 -18 -12 -22 -13
-22 -24 22 -10 38 -10 47 3 58 9 6 21 12 26 12 6 0 4 -4 -4 -10z m-207 -30 c3
-11 1 -20 -4 -20 -5 0 -9 9 -9 20 0 11 2 20 4 20 2 0 6 -9 9 -20z m17 -40
c-18 -12 -30 -13 -30 -2 0 4 10 9 22 9 18 2 20 0 8 -7z m-700 -10 c0 -5 -4
-10 -10 -10 -5 0 -10 5 -10 10 0 6 5 10 10 10 6 0 10 -4 10 -10z m666 -59 c-4
-6 -14 -11 -22 -11 -12 0 -13 4 -3 21 7 14 14 18 21 11 6 -6 7 -15 4 -21z
m-446 -51 c0 -5 -4 -10 -10 -10 -5 0 -10 5 -10 10 0 6 5 10 10 10 6 0 10 -4
10 -10z m360 -10 c0 -15 -6 -19 -25 -18 -29 3 -32 13 -7 27 25 15 32 13 32 -9z
m150 -88 c-7 -13 -9 -8 -9 23 0 35 1 37 10 17 6 -15 5 -30 -1 -40z m-2 -30
c12 -9 13 -15 4 -24 -9 -9 -12 -9 -12 2 0 7 -3 10 -7 7 -3 -4 -11 -2 -18 3 -8
7 -15 3 -23 -15 -10 -21 -32 -35 -32 -20 0 10 40 69 40 60 0 -5 6 -1 12 10 9
15 12 16 16 5 2 -8 11 -21 20 -28z m190 0 c5 -31 -15 -27 -21 3 -3 16 0 24 7
22 6 -2 12 -13 14 -25z m-268 8 c0 -5 -2 -10 -4 -10 -3 0 -8 5 -11 10 -3 6 -1
10 4 10 6 0 11 -4 11 -10z m58 -49 c11 -6 9 -17 -8 -54 -12 -26 -27 -44 -32
-41 -6 4 -5 9 3 14 7 5 13 17 14 27 0 10 4 24 9 31 4 6 2 12 -3 12 -6 0 -11 5
-11 10 0 12 10 13 28 1z m-28 -21 c0 -5 -4 -10 -10 -10 -5 0 -10 5 -10 10 0 6
5 10 10 10 6 0 10 -4 10 -10z m-2 -26 c2 -1 -6 -12 -18 -24 -19 -19 -20 -23
-6 -33 21 -16 17 -83 -5 -84 -12 -1 -15 4 -12 18 3 10 9 19 14 19 17 0 9 29
-12 44 -21 15 -23 51 -2 51 6 0 15 3 19 8 4 4 2 7 -4 7 -7 0 -12 5 -12 11 0 8
6 7 18 -2 9 -7 19 -14 20 -15z m54 -61 c12 -15 4 -43 -13 -43 -7 0 -9 9 -6 22
4 12 1 28 -4 35 -6 6 -7 18 -3 25 6 10 10 8 12 -7 2 -11 9 -26 14 -32z m37 -7
c8 -10 8 -16 -1 -24 -10 -8 -13 -4 -13 14 0 28 -1 28 14 10z m-142 -28 c-3 -8
-6 -5 -6 6 -1 11 2 17 5 13 3 -3 4 -12 1 -19z m364 -50 c-7 -26 -9 -28 -10
-10 -1 35 -17 18 -30 -33 -12 -47 -31 -61 -31 -22 0 16 -6 23 -20 24 -11 1
-21 -2 -21 -8 -1 -5 -3 -13 -4 -19 -1 -5 -3 -26 -4 -45 -1 -28 -5 -35 -21 -35
-11 0 -20 -4 -20 -10 0 -23 48 -2 88 40 l24 25 -21 -31 c-22 -33 -51 -61 -51
-49 0 5 -9 -2 -19 -14 -23 -26 -31 -28 -42 -9 -6 10 -9 8 -9 -7 0 -15 -2 -17
-9 -6 -7 11 -10 10 -14 -5 -4 -13 -5 -11 -4 6 2 21 7 25 30 23 30 -2 35 8 12
27 -12 10 -15 10 -16 -1 0 -10 -2 -11 -6 -1 -9 23 -21 12 -28 -28 -8 -48 -21
-59 -28 -24 -4 25 17 81 37 95 5 4 6 23 3 42 -3 21 0 42 7 52 16 22 46 9 46
-21 0 -28 -15 -31 -29 -6 -9 15 -10 15 -11 0 0 -9 6 -18 13 -21 9 -3 9 -7 -2
-20 -20 -25 -8 -21 23 8 14 13 26 31 26 39 0 8 9 20 20 26 14 7 20 7 20 0 0
-15 36 -12 49 3 6 8 9 17 6 20 -3 4 -2 5 2 2 10 -7 43 26 44 44 1 14 2 14 6
-1 2 -9 0 -31 -6 -50z m-481 -21 c0 -2 -12 -14 -27 -28 l-28 -24 24 28 c23 25
31 32 31 24z m98 -24 c-12 -14 -15 -37 -13 -103 2 -47 1 -71 -2 -55 -3 17 -8
35 -13 40 -4 6 -5 38 -2 73 4 54 7 62 25 62 18 0 19 -1 5 -17z m360 -18 c-6
-14 -13 -23 -15 -21 -5 5 15 46 22 46 3 0 -1 -11 -7 -25z m-218 -65 c-18 -33
-24 -16 -9 27 11 31 14 34 17 16 2 -12 -2 -32 -8 -43z m160 36 c0 -7 -7 -19
-15 -26 -16 -13 -20 -3 -9 24 8 20 24 21 24 2z m-1070 -76 c0 -5 -5 -10 -11
-10 -5 0 -7 5 -4 10 3 6 8 10 11 10 2 0 4 -4 4 -10z m-375 -20 c3 -5 1 -10 -4
-10 -6 0 -11 5 -11 10 0 6 2 10 4 10 3 0 8 -4 11 -10z m-35 -4 c0 -3 -4 -8
-10 -11 -5 -3 -10 -1 -10 4 0 6 5 11 10 11 6 0 10 -2 10 -4z m1023 -3 c-7 -2
-19 -2 -25 0 -7 3 -2 5 12 5 14 0 19 -2 13 -5z m-723 -73 c0 -5 -4 -10 -10
-10 -5 0 -10 5 -10 10 0 6 5 10 10 10 6 0 10 -4 10 -10z m280 0 c0 -5 -2 -10
-4 -10 -3 0 -8 5 -11 10 -3 6 -1 10 4 10 6 0 11 -4 11 -10z m-530 -30 c0 -5
-5 -10 -11 -10 -5 0 -7 5 -4 10 3 6 8 10 11 10 2 0 4 -4 4 -10z m540 6 c0 -3
-4 -8 -10 -11 -5 -3 -10 -1 -10 4 0 6 5 11 10 11 6 0 10 -2 10 -4z"/>
<path d="M1631 1514 c0 -11 3 -14 6 -6 3 7 2 16 -1 19 -3 4 -6 -2 -5 -13z"/>
<path d="M1787 1664 c-11 -11 -8 -42 4 -49 16 -10 19 -2 11 29 -4 15 -11 24
-15 20z"/>
<path d="M710 1599 c0 -5 5 -7 10 -4 6 3 10 8 10 11 0 2 -4 4 -10 4 -5 0 -10
-5 -10 -11z"/>
<path d="M545 1590 c-3 -5 -1 -10 4 -10 6 0 11 5 11 10 0 6 -2 10 -4 10 -3 0
-8 -4 -11 -10z"/>
<path d="M1965 1391 c-3 -5 -1 -12 5 -16 5 -3 10 1 10 9 0 18 -6 21 -15 7z"/>
<path d="M1735 1380 c-3 -5 -1 -10 4 -10 6 0 11 5 11 10 0 6 -2 10 -4 10 -3 0
-8 -4 -11 -10z"/>
<path d="M1880 1330 c0 -5 5 -10 10 -10 6 0 10 5 10 10 0 6 -4 10 -10 10 -5 0
-10 -4 -10 -10z"/>
<path d="M527 1306 c17 -15 48 -45 68 -69 20 -23 32 -33 27 -22 -14 27 -78 92
-105 106 -13 6 -10 0 10 -15z"/>
<path d="M1615 1290 c-4 -6 1 -7 11 -3 12 5 15 2 11 -13 -14 -51 -17 -94 -7
-94 7 0 9 -14 6 -37 -4 -30 -4 -32 3 -13 5 14 6 44 3 67 -3 27 0 48 8 58 7 8
10 22 6 30 -6 17 -32 20 -41 5z"/>
<path d="M508 1243 c6 -2 18 -2 25 0 6 3 1 5 -13 5 -14 0 -19 -2 -12 -5z"/>
<path d="M1846 1195 c-3 -9 -6 -26 -6 -38 0 -19 2 -18 15 7 9 17 12 33 7 38
-6 6 -12 3 -16 -7z"/>
<path d="M180 1180 c0 -5 5 -10 10 -10 6 0 10 5 10 10 0 6 -4 10 -10 10 -5 0
-10 -4 -10 -10z"/>
<path d="M878 1093 c18 -2 45 -2 60 0 15 2 0 4 -33 4 -33 0 -45 -2 -27 -4z"/>
<path d="M796 1081 c-4 -5 3 -7 14 -4 23 6 26 13 6 13 -8 0 -17 -4 -20 -9z"/>
<path d="M983 1083 c9 -2 23 -2 30 0 6 3 -1 5 -18 5 -16 0 -22 -2 -12 -5z"/>
<path d="M807 1033 c-4 -3 -7 -11 -7 -17 0 -6 5 -5 12 2 6 6 9 14 7 17 -3 3
-9 2 -12 -2z"/>
</g>
</svg>
